<svg width="18" height="18" viewBox="0 0 18 18" fill="none" xmlns="http://www.w3.org/2000/svg">
<path fill-rule="evenodd" clip-rule="evenodd" d="M10.2177 8.80348L17.2888 1.73241C17.713 1.30815 17.713 0.742462 17.2888 0.318198C16.8645 -0.106066 16.2988 -0.106066 15.8745 0.318198L8.80348 7.38927L1.73241 0.318198C1.30815 -0.106066 0.742462 -0.106066 0.318198 0.318198C-0.106066 0.742462 -0.106066 1.30815 0.318198 1.73241L7.38927 8.80348L0.318198 15.8745C-0.106066 16.2988 -0.106066 16.8645 0.318198 17.2888C0.742462 17.713 1.30815 17.713 1.73241 17.2888L8.80348 10.2177L15.8745 17.2888C16.2988 17.713 16.8645 17.713 17.2888 17.2888C17.713 16.8645 17.713 16.2988 17.2888 15.8745L10.2177 8.80348Z" fill="white"/>
</svg>
